<?xml version="1.0" standalone="no"?><!DOCTYPE svg PUBLIC "-//W3C//DTD SVG 1.1//EN" "http://www.w3.org/Graphics/SVG/1.1/DTD/svg11.dtd"><svg t="1509784900816" class="icon" style="" viewBox="0 0 1024 1024" version="1.1" xmlns="http://www.w3.org/2000/svg" p-id="6603" xmlns:xlink="http://www.w3.org/1999/xlink" width="64" height="64"><defs><style type="text/css">@font-face { font-family: Simsun; src: local("微软雅黑 Light"); }
@font-face { font-family: NSimsun; src: local("微软雅黑 Light"); }
@font-face { font-family: Simhei; src: local("微软雅黑 Light"); }
@font-face { font-family: "Microsoft YaHei"; src: local("微软雅黑 Light"); }
@font-face { font-family: 宋体; src: local("微软雅黑 Light"); }
@font-face { font-family: 新宋体; src: local("微软雅黑 Light"); }
@font-face { font-family: 黑体; src: local("微软雅黑 Light"); }
@font-face { font-family: 微软雅黑; src: local("微软雅黑 Light"); }
* { letter-spacing: 0.6px; }
</style></defs><path d="M0 0l256 0 0 256-256 0 0-256Z" p-id="6604"></path><path d="M426.666667 0l597.333333 0 0 256-597.333333 0 0-256Z" p-id="6605"></path><path d="M426.666667 384l597.333333 0 0 256-597.333333 0 0-256Z" p-id="6606"></path><path d="M426.666667 768l597.333333 0 0 256-597.333333 0 0-256Z" p-id="6607"></path><path d="M0 384l256 0 0 256-256 0 0-256Z" p-id="6608"></path><path d="M0 768l256 0 0 256-256 0 0-256Z" p-id="6609"></path></svg>